<svg xmlns="http://www.w3.org/2000/svg" preserveAspectRatio="none" overflow="visible" style="display: block;" width="24" height="24" viewBox="0 0 24 24" fill="none">
  <g transform="translate(2.4 2.4) scale(1.2)">
    <g id="Group">
      <path id="Vector" d="M1 3H15M1 8H15M1 13H15" stroke="#222222" stroke-width="2" stroke-linecap="round" stroke-linejoin="round" />
      <path id="Vector_2" d="M5 5C6.10457 5 7 4.10457 7 3C7 1.89543 6.10457 1 5 1C3.89543 1 3 1.89543 3 3C3 4.10457 3.89543 5 5 5Z" stroke="#222222" stroke-width="2" stroke-linecap="round" stroke-linejoin="round" />
      <path id="Vector_3" d="M11 10C12.1046 10 13 9.10457 13 8C13 6.89543 12.1046 6 11 6C9.89543 6 9 6.89543 9 8C9 9.10457 9.89543 10 11 10Z" stroke="#222222" stroke-width="2" stroke-linecap="round" stroke-linejoin="round" />
      <path id="Vector_4" d="M6 15C7.10457 15 8 14.1046 8 13C8 11.8954 7.10457 11 6 11C4.89543 11 4 11.8954 4 13C4 14.1046 4.89543 15 6 15Z" stroke="#222222" stroke-width="2" stroke-linecap="round" stroke-linejoin="round" />
    </g>
  </g>
</svg>
